# xmcd
#
# Track frame offsets: 
#        150
#        15709
#        25941
#        39172
#        52687
#        61454
#        67734
#        83831
#        95592
#        104632
#        119289
#        128984
#        140336
#        151171
#        164933
#        175051
#        184826
#        192241
#        207154
#        217874
#
# Disc length: 3044 seconds
#
# Revision: 0
# Processed by: cddbd v1.5.2PL0 Copyright (c) Steve Scherf et al.
# Submitted via: ExactAudioCopyFreeDBPlugin 1.0
#
DISCID=0f0be214
DTITLE=Werner Specht and Dieter Peinecke and Westwind - Liederstrasse
DYEAR=1900
DGENRE=
TTITLE0=Werner Specht and Dieter Peinecke - Huiweh
TTITLE1=Werner Specht and Dieter Peinecke - ´s Johr goht
TTITLE2=Dieter Peinecke and Werner Specht - Montag Morge
TTITLE3=As goht mir guat 
TTITLE4=Werner Specht and Dieter Peinecke - Traeumende Musikant
TTITLE5=Werner Specht and Dieter Peinecke - ´s Geschenkle
TTITLE6=Werner Specht and Dieter Peinecke - De Rausch isch a Deifl
TTITLE7=Werner Specht and Dieter Peinecke - La Partida
TTITLE8=Dieter Peinecke and Werner Specht - Liedr bruched a Gschicht 
TTITLE9=Werner Specht and Dieter Peinecke - Aelpler Andacht
TTITLE10=Werner Specht and Dieter Peinecke - Mi Dahui
TTITLE11=Werner Specht and Dieter Peinecke - Endlos 
TTITLE12=Solo Blues
TTITLE13=Dieter Peinecke - Scarborough Fair
TTITLE14=Werner Specht and Dieter Peinecke - Iiszit
TTITLE15=De Schwetzer
TTITLE16=Werner Specht - De Alpeflug
TTITLE17=Werner Specht - Hallo Anna
TTITLE18=Werner Specht and Dieter Peinecke - Ab naechster Woche
TTITLE19=Werner Specht and Dieter Peinecke - Blieb wia du bisch
EXTD=
EXTT0=
EXTT1=
EXTT2=
EXTT3=
EXTT4=
EXTT5=
EXTT6=
EXTT7=
EXTT8=
EXTT9=
EXTT10=
EXTT11=
EXTT12=
EXTT13=
EXTT14=
EXTT15=
EXTT16=
EXTT17=
EXTT18=
EXTT19=
PLAYORDER=
